<svg width="22" height="22" viewBox="0 0 22 22" fill="none" xmlns="http://www.w3.org/2000/svg">
<path d="M20.5452 10.7128C18.4858 6.90554 14.8741 4.60165 10.8774 4.60165C6.88078 4.60165 3.263 6.90554 1.22189 10.7128L1.05078 11L1.20967 11.2933C3.26911 15.1005 6.88078 17.4044 10.8774 17.4044C14.8741 17.4044 18.4919 15.1311 20.5452 11.2933L20.7041 11L20.5452 10.7128ZM10.8774 16.1517C7.43689 16.1517 4.27745 14.2328 2.44411 11C4.27745 7.76721 7.43689 5.84832 10.8774 5.84832C14.318 5.84832 17.4408 7.77332 19.3047 11C17.4408 14.2328 14.3119 16.1517 10.8774 16.1517V16.1517Z"/>
<path d="M11.0552 6.8261C10.2266 6.83215 9.41837 7.08361 8.73261 7.54873C8.04684 8.01385 7.5143 8.67175 7.20223 9.43936C6.89016 10.207 6.81257 11.0498 6.97925 11.8615C7.14593 12.6732 7.54942 13.4173 8.13874 13.9998C8.72806 14.5823 9.47679 14.9771 10.2904 15.1343C11.1039 15.2915 11.9458 15.2041 12.7097 14.8831C13.4737 14.5621 14.1253 14.022 14.5824 13.3308C15.0395 12.6397 15.2816 11.8286 15.278 11C15.2756 10.4484 15.1643 9.90275 14.9507 9.39424C14.737 8.88574 14.4251 8.4244 14.0328 8.03665C13.6405 7.64891 13.1756 7.34239 12.6646 7.13466C12.1537 6.92693 11.6067 6.82208 11.0552 6.8261V6.8261ZM11.0552 13.9883C10.4699 13.9823 9.89944 13.8034 9.41546 13.4743C8.93148 13.1451 8.55556 12.6802 8.33491 12.1381C8.11426 11.5959 8.05872 11.0007 8.17527 10.4271C8.29182 9.8535 8.57525 9.32713 8.98998 8.91409C9.40471 8.50105 9.93223 8.21977 10.5063 8.10556C11.0804 7.99136 11.6754 8.04933 12.2166 8.27219C12.7579 8.49505 13.2212 8.87286 13.5484 9.35818C13.8756 9.8435 14.0521 10.4147 14.0557 11C14.0574 11.3939 13.9808 11.7842 13.8304 12.1483C13.68 12.5124 13.4589 12.8431 13.1798 13.121C12.9007 13.399 12.5691 13.6188 12.2044 13.7677C11.8397 13.9166 11.4491 13.9916 11.0552 13.9883V13.9883Z"/>
</svg>
