<svg width="35" height="35" viewBox="0 0 35 35" fill="none" xmlns="http://www.w3.org/2000/svg">
<path d="M27.7085 20.4167V8.75004C27.7085 7.14587 26.396 5.83337 24.7918 5.83337H4.37516C2.771 5.83337 1.4585 7.14587 1.4585 8.75004V20.4167C1.4585 22.0209 2.771 23.3334 4.37516 23.3334H24.7918C26.396 23.3334 27.7085 22.0209 27.7085 20.4167ZM14.5835 18.9584C12.1627 18.9584 10.2085 17.0042 10.2085 14.5834C10.2085 12.1625 12.1627 10.2084 14.5835 10.2084C17.0043 10.2084 18.9585 12.1625 18.9585 14.5834C18.9585 17.0042 17.0043 18.9584 14.5835 18.9584ZM33.5418 10.2084V26.25C33.5418 27.8542 32.2293 29.1667 30.6252 29.1667H5.8335V26.25H30.6252V10.2084H33.5418Z" fill="black"/>
</svg>
