<svg width="35" height="35" viewBox="0 0 35 35" fill="none" xmlns="http://www.w3.org/2000/svg">
<path d="M23.6832 11.3166C21.9769 9.61038 19.7457 8.74996 17.4998 8.74996V17.5L11.3165 23.6833C14.729 27.0958 20.2707 27.0958 23.6978 23.6833C27.1103 20.2708 27.1103 14.7291 23.6832 11.3166ZM17.4998 2.91663C9.44984 2.91663 2.9165 9.44996 2.9165 17.5C2.9165 25.55 9.44984 32.0833 17.4998 32.0833C25.5498 32.0833 32.0832 25.55 32.0832 17.5C32.0832 9.44996 25.5498 2.91663 17.4998 2.91663ZM17.4998 29.1666C11.054 29.1666 5.83317 23.9458 5.83317 17.5C5.83317 11.0541 11.054 5.83329 17.4998 5.83329C23.9457 5.83329 29.1665 11.0541 29.1665 17.5C29.1665 23.9458 23.9457 29.1666 17.4998 29.1666Z" fill="black"/>
</svg>
